
<global>
amp_veltrack=0
ampeg_release=0.35
</global>

<group>
group_label=Group_0-42
lpc_hicc1=42
lpc_locc1=0

<region>
hikey=A#5
hivel=127
lokey=A5
loop_end=286316
loop_mode=loop_continuous
loop_start=59737
loop_xfade=27125
lovel=1
lpc=uGQQQsX7L8KmQEZCK+oowvU/MUIQvPbBxhz1QRHEqcF186hBtTEUwfQ2KkFzSSnALbDrQEkEuUC00ks/FYEYQKfCwkCNI03A3c1GQYsEJMFcVINBtCAWwWpLfEEOItnA
lpc_rms=-33.86
pitch_keycenter=A#5
sample=Piccolo_nonvib_PP_A#4.opus
</region>

<region>
hikey=A#6
hivel=127
lokey=A6
loop_end=277442
loop_mode=loop_continuous
loop_start=57885
loop_xfade=26284
lovel=1
lpc=Bv9PQYFtzMBUHrVAx8hgwBZEnkAcahzAGcGDQBSny72B5WRAxIR5Ptm+ckCtcQE/A8amv7yuL8CPAg9AZGImQMNg2z/e81I/ThPyP6l5sz8MAEQ/5YKLvdwrWT+wdqo/
lpc_rms=-39.58
pitch_keycenter=A#6
sample=Piccolo_nonvib_PP_A#5.opus
</region>

<region>
hikey=C6
hivel=127
lokey=B5
loop_end=278890
loop_mode=loop_continuous
loop_start=58188
loop_xfade=26421
lovel=1
lpc=QCqSQVGRisH/c6xBo4GZwd5giEF5AD/BvwUZQWoPycBq2J5AMlQJwKALEkCU/li/CKrePwaQjr94GChANnKov8D1C0ATtwjAicJ7QECdQsBk1qNAkoOuwI7aqr930bjA
lpc_rms=-41.88
pitch_keycenter=C6
sample=Piccolo_nonvib_PP_C5.opus
</region>

<region>
hikey=C7
hivel=127
lokey=B6
loop_end=269998
loop_mode=loop_continuous
loop_start=56332
loop_xfade=25579
lovel=1
lpc=N5RzQlGmHcIwqvNB5lXiwPVXukGkRhRAdvKqQY7KV0Ds3kNBEhCtQAaMNEFIv4XBEe/kQFxTVkHdJ2w+7l1OQOLb079K5xs/SWeiv39ymEBkrCVAaZ0PQWmxgcGvBpBA
lpc_rms=-24.15
pitch_keycenter=C7
sample=Piccolo_nonvib_PP_C6.opus
</region>

<region>
hivel=127
key=D5
loop_end=259136
loop_mode=loop_continuous
loop_start=54066
loop_xfade=24550
lovel=1
lpc=yzwKQRfDgsF+LI5BM3N6waAlFEHkw8XAAnbLQHqlo8Am+qhAZvWBwCeWJEBMlgbAlDoMQAoI9r8WrIM/2mOsPpjBlr4RLuo+UpxIvj6Doz4ek5q/N0W0P9fGsL8zQtA/
lpc_rms=-46.67
sample=Piccolo_nonvib_PP_D4.opus
</region>

<region>
hikey=D6
hivel=127
lokey=C#6
loop_end=290003
loop_mode=loop_continuous
loop_start=60506
loop_xfade=27474
lovel=1
lpc=ReZrQtEaTMLNjxZC33n5wRXrnkHKGEHBsC8jQYdXXMD/WNpAgIHBwAzbAUGirDw+Pq45wOLFsEBe6oE/0atMPnE1gr+kV9RA7XFVP8PMn8AipODBH0uiQFvBJD9w1u1A
lpc_rms=-29.19
pitch_keycenter=D6
sample=Piccolo_nonvib_PP_D5.opus
</region>

<region>
hikey=D7
hivel=127
lokey=C#7
loop_end=280175
loop_mode=loop_continuous
loop_start=58456
loop_xfade=26543
lovel=1
lpc=mpP+QG4ro7/ntjpAEbEjPxD3C0AgDk0/eV7sPxWUoT5726Q/r7s+Pjnt0L/UZbU++RicPwQe4z5LMFQ+yfcJPktSjz4lBCM/OWyHP8hNTz+1zQbA2chvv1IxN74ThW2/
lpc_rms=-41.28
pitch_keycenter=D7
sample=Piccolo_nonvib_PP_D6.opus
</region>

<region>
hikey=E5
hivel=127
lokey=D#5
loop_end=273387
loop_mode=loop_continuous
loop_start=57039
loop_xfade=25900
lovel=1
lpc=RQ1uQZQu0cFw2dxB8ZHewS92xEGQspbBGIeJQYfRZcHKpEdBvWAlwVlPBUHBl8/AsgmaQCbXR8Arhse8TypZQI0Z47+gVx5AyCnKv2VrS0Bqn23ArvQXQFLIDsA14TBA
lpc_rms=-38.97
pitch_keycenter=E5
sample=Piccolo_nonvib_PP_E4.opus
</region>

<region>
hikey=E6
hivel=127
lokey=D#6
loop_end=277100
loop_mode=loop_continuous
loop_start=57814
loop_xfade=26252
lovel=1
lpc=1suyQTCsWcGO211BIKoVwWEXC0GPbqDAylK1QAi3DMCTIYZA6qS5vxEdL0C31qE86HowQNbLh7//OuE/dCdMQIx1Wb+GdaW/4gopwU9OiL5coI2+lLp6P8Duiz7cPEW+
lpc_rms=-38.00
pitch_keycenter=E6
sample=Piccolo_nonvib_PP_E5.opus
</region>

<region>
hikey=E7
hivel=127
lokey=D#7
loop_end=283293
loop_mode=loop_continuous
loop_start=59106
loop_xfade=26839
lovel=1
lpc=S8kUQmeEN8HwV3VBiUy9QMqkNEFMD/tAv5XjQPHRw0DyqIFAuUZewdXUD0HupHW/zTPYPxXOoj2tDZC/NUN9QIuykUDNVFdAhSXwwKK260BI/bq+mJ2CP8l9i75yD0ZA
lpc_rms=-26.79
pitch_keycenter=E7
sample=Piccolo_nonvib_PP_E6.opus
</region>

<region>
hikey=F#5
hivel=127
lokey=F5
loop_end=280467
loop_mode=loop_continuous
loop_start=58517
loop_xfade=26571
lovel=1
lpc=o+XtQIP9YMFginpBwJR7wcrHgUFgJ1PB0lEwQV6DGcE3hQVBWk7PwI93tECEdYHAOsdLQIR1wb/GG0I/EnK+Pi+yQb/QqKA/tGEyv5uS/D+qF/6/nmDzP+Pf+b+OPv8/
lpc_rms=-42.85
pitch_keycenter=F#5
sample=Piccolo_nonvib_PP_F#4.opus
</region>

<region>
hikey=F#6
hivel=127
lokey=F6
loop_end=274483
loop_mode=loop_continuous
loop_start=57268
loop_xfade=26004
lovel=1
lpc=rjVWQguN+MEpJq5BNJGNwdrChEFitKbAn50vQSKC0kAB0LE/GKeyQKvWsD/OBWa/fg1jQGjaKUASnH9A9vo4wQqNsMHDDl/Ao5cxQXfqYcBznZhAF5E0wc2Ls0CwkD3B
lpc_rms=-29.88
pitch_keycenter=F#6
sample=Piccolo_nonvib_PP_F#5.opus
</region>

<region>
hikey=F#7
hivel=127
lokey=F7
loop_end=277027
loop_mode=loop_continuous
loop_start=57799
loop_xfade=26245
lovel=1
lpc=DxOcQfN13sDJfMxAdxcSQAvGi0D8TIlAXIJQQGpVEkBk7FXAjYO2QN3vxz85r6A/8vv8PzmQjT/BmglAKGhsQAfr5L/niH9ABgBpQL8W2z/SHEVAS0MtP3DpskAYpYnA
lpc_rms=-28.56
pitch_keycenter=F#7
sample=Piccolo_nonvib_PP_F#6.opus
</region>

<region>
hikey=G#5
hivel=127
lokey=G5
loop_end=284094
loop_mode=loop_continuous
loop_start=59273
loop_xfade=26914
lovel=1
lpc=7SnIQbo/CsK7ZA5C3eP2wZRBDEJFAsXBC/moQVQjnsEwEp9Bu4Ajwd/4QkGndhXBAaetQNBbHEB7wVVA0+6AQGesfcAWJkxAX+BOQBWli0CiMBnAFSlAQIXpjsAHoRZB
lpc_rms=-36.22
pitch_keycenter=G#5
sample=Piccolo_nonvib_PP_G#4.opus
</region>

<region>
hikey=G#6
hivel=127
lokey=G6
loop_end=287185
loop_mode=loop_continuous
loop_start=59918
loop_xfade=27207
lovel=1
lpc=X15dQQTSy8BBmLhAKUX4v66dbUAdZ6Q/Ovd6PKrn8z9Jqas/36J9PtN3iD/RUgu9cZbhP83xbb/DPMrAdM0jwIv/3D5d9Cu/cKoMv2PCHsB2g48/xCfIvzgPrb2/+yO/
lpc_rms=-39.74
pitch_keycenter=G#6
sample=Piccolo_nonvib_PP_G#5.opus
</region>

<region>
hikey=G#7
hivel=127
lokey=G7
loop_end=267780
loop_mode=loop_continuous
loop_start=55870
loop_xfade=25369
lovel=1
lpc=zzAFQteyM8F0DctBRJNeQMG4qkFZakhBP+imQWDkhkA5XL1BW+4nQW0Rp0F5oChBA9ePQc/HX0F7axdBgLyBQTpFSEHjmkFB44KJQbs1z0BQ8XlBfRCiwGLWEEHHUwRA
lpc_rms=-23.34
pitch_keycenter=G#7
sample=Piccolo_nonvib_PP_G#6.opus
</region>
</group>

<group>
group_label=Group_43-127
lpc_hicc1=127
lpc_locc1=43

<region>
hikey=A#5
hivel=127
lokey=A5
loop_end=288316
loop_mode=loop_continuous
loop_start=60154
loop_xfade=27314
lovel=1
lpc=LrwBQtOKz8GyvCVCG2+ywdf9AULC4CfB96C5QUi+z8AAmqhB4K65wME6skG2oIPAFPqAQQc1CkCDWR9BFfAWQW7Jx0BMCP1A67cDQYGJ1kA5gxRBOb4RQdrzVEBXe2tB
lpc_rms=-26.17
pitch_keycenter=A#5
sample=Piccolo_nonvib_FF_A#4.opus
</region>

<region>
hikey=A#6
hivel=127
lokey=A6
loop_end=284240
loop_mode=loop_continuous
loop_start=59304
loop_xfade=26928
lovel=1
lpc=05E+Qj4W6cEete5BBWYGwc2fj0Gm0/RA940oQQg0gkHQbJlAZmiZQZpMIEBP9qxBEo1bwAXONMFy2xRCxphHwcyX1EFolcDAkllIQXL6+j/QTWVAKpULQda9V751cS9B
lpc_rms=-19.09
pitch_keycenter=A#6
sample=Piccolo_nonvib_FF_A#5.opus
</region>

<region>
hikey=C6
hivel=127
lokey=B5
loop_end=285444
loop_mode=loop_continuous
loop_start=59555
loop_xfade=27042
lovel=1
lpc=NAUoQu5IFcJUaClCWNjhwW7p5EEvNH3BWkmcQfmFH8GsU35BtCkBwSlhgEHuugLBESlGQUOIG784IatAlRzIP4YB2UDpmAZAYwYUQCkW0UA0d8k/fV7kQHk8ncERZHg/
lpc_rms=-25.38
pitch_keycenter=C6
sample=Piccolo_nonvib_FF_C5.opus
</region>

<region>
hikey=C7
hivel=127
lokey=B6
loop_end=276660
loop_mode=loop_continuous
loop_start=57722
loop_xfade=26210
lovel=1
lpc=92GGQrXiM8K1aCtC4NEnwVX3wkELfHG/znETQi/fmT7LitVBRIL7vymUC0IRZMzBDOneQdn5rkFhzS1AxI/aQSlpoUD3M1pBZFdVwBMLykEuFB7APorlQTayscFAODZB
lpc_rms=-17.58
pitch_keycenter=C7
sample=Piccolo_nonvib_FF_C6.opus
</region>

<region>
hivel=127
key=D5
loop_end=290910
loop_mode=loop_continuous
loop_start=60696
loop_xfade=27560
lovel=1
lpc=ZghtQRtOFcL0nDlCHlwvwuh4DUJq9bzBN3tkQeWv78BksZdAFBiFwImYmkA0H6LAYhipQORlvcDxELpAlLuPwKaRVkAdORnAmlbTP/GkZD9EYGLAavyvQNw3z8B0SGxA
lpc_rms=-32.96
sample=Piccolo_nonvib_FF_D4.opus
</region>

<region>
hikey=D6
hivel=127
lokey=C#6
loop_end=281082
loop_mode=loop_continuous
loop_start=58645
loop_xfade=26629
lovel=1
lpc=A+mFQlaMZMKt4HJCkwkwwpfqIkKLQIPBmmEBQgpRR8HsJdZBytbLwOucr0EQ9Ji/pxt/Qdskd0AOG05BuFapQFt8K0HJDxVBxi4fQX+PkUCb9u7BUbl7Qdsei8CTAmJB
lpc_rms=-20.93
pitch_keycenter=D6
sample=Piccolo_nonvib_FF_D5.opus
</region>

<region>
hikey=D7
hivel=127
lokey=C#7
loop_end=275681
loop_mode=loop_continuous
loop_start=57518
loop_xfade=26117
lovel=1
lpc=k2P6QXugZcFY7oxB+wCoPmuLWEGvKB5BhGsOQV9K0ECilCVBkB8DQQzZhMBSGkBBZW7ZQMmpoEC5cfNASr3sP3QPCEGExOZA10m3QDmwCkHPoQnBtjkWQbOGjL4V6j1A
lpc_rms=-23.17
pitch_keycenter=D7
sample=Piccolo_nonvib_FF_D6.opus
</region>

<region>
hikey=E5
hivel=127
lokey=D#5
loop_end=290308
loop_mode=loop_continuous
loop_start=60570
loop_xfade=27503
lovel=1
lpc=QXyfQcu1PcKoillC5MA4wlVwFkKY5dDBaeSBQbURQ8EXLzxBhJkZwT+lDEHVeRDBfG8HQXOVtsBH08BA9GidwEHvIUCweBjAdKuuPzS/FkASr07AuMbKQJlDDsHCGrNA
lpc_rms=-29.80
pitch_keycenter=E5
sample=Piccolo_nonvib_FF_E4.opus
</region>

<region>
hikey=E6
hivel=127
lokey=D#6
loop_end=292127
loop_mode=loop_continuous
loop_start=60949
loop_xfade=27676
lovel=1
lpc=MPDzQddG38HU6OZBCnprwVdXmUFsvsTAgXZNQWKCJr8VSzFBxVLFQFVsvkBg8JlAOjkNQcOnb0DOHi9BsC9QPxz1PUE7Q/+/q50SwUY5hEH0bODAsIQIQXVME8BCE6JA
lpc_rms=-24.75
pitch_keycenter=E6
sample=Piccolo_nonvib_FF_E5.opus
</region>

<region>
hikey=E7
hivel=127
lokey=D#7
loop_end=280154
loop_mode=loop_continuous
loop_start=58451
loop_xfade=26541
lovel=1
lpc=R7lRQh5++MEDDCZCBFr3wC4DCkLaWkZBPaRsQQQdykFWcAVBPtkZwbw8C0LUv9/AZ0DsQW7rKL95pbFBFevVQBOxVUGVuMNAg8fkPqi5ikGckzvA/AbiQMU+BcGMdpg/
lpc_rms=-18.21
pitch_keycenter=E7
sample=Piccolo_nonvib_FF_E6.opus
</region>

<region>
hikey=F#5
hivel=127
lokey=F5
loop_end=294277
loop_mode=loop_continuous
loop_start=61398
loop_xfade=27879
lovel=1
lpc=YEv8QA+KhsF87o5BZBtFwUyeGkE6LN7Ad+SZQAWWYcBoRY1Abn6HwLoahEBlBVfA0phaQGq9G8ARzPs/3APJvzaG6j9LLsO/YOKfP8UlFzsvxVy/0kEKQO8+RcBJKgNA
lpc_rms=-34.91
pitch_keycenter=F#5
sample=Piccolo_nonvib_FF_F#4.opus
</region>

<region>
hikey=F#6
hivel=127
lokey=F6
loop_end=277716
loop_mode=loop_continuous
loop_start=57943
loop_xfade=26310
lovel=1
lpc=1c34QZVtqMGSEKtBQBTuwFTDVkGcCT5AbxVFQdqPEb//0URB2tzkv+bFJUFdlqg/kMP+QNFc7z9y8xpBi7Wrv69vYMG0tBhBizUjv5agyD7AVw4/oKWKwIpcxL+SvYi/
lpc_rms=-24.77
pitch_keycenter=F#6
sample=Piccolo_nonvib_FF_F#5.opus
</region>

<region>
hikey=F#7
hivel=127
lokey=F7
loop_end=273667
loop_mode=loop_continuous
loop_start=57098
loop_xfade=25927
lovel=1
lpc=fRk5Qte76cFcYh1CTSrxwJ7t/UFy0f9ARJK/QdJW+kCjc0DA8LYJQuXfncBGscxBxBdMQJfUSEHFUh9BiQHqQGlUnUC7yKZBjjtBQFymW0HXjvM+PMY0QYC5ykCJ93pA
lpc_rms=-10.58
pitch_keycenter=F#7
sample=Piccolo_nonvib_FF_F#6.opus
</region>

<region>
hikey=G#5
hivel=127
lokey=G5
loop_end=284557
loop_mode=loop_continuous
loop_start=59370
loop_xfade=26958
lovel=1
lpc=8cckQcqMkMHlY65BoN2MwRt0aEF1vxHBlSLrQGtrfsDnfXZAuwBYwE5RrUB+M2nAd5FFQFF0kL9RyVZA+BcZwB2PDUAA8r0/N1SQv1ScO0BQCz/AVHK0QL7Qo8BBjZBA
lpc_rms=-30.31
pitch_keycenter=G#5
sample=Piccolo_nonvib_FF_G#4.opus
</region>

<region>
hikey=G#6
hivel=127
lokey=G6
loop_end=278307
loop_mode=loop_continuous
loop_start=58066
loop_xfade=26366
lovel=1
lpc=r2iSQeq2EcEsZxVB3yXoPk+BO0BdbspAzSJpPgcB8UCWUQm+oWuVQOwcCkA5zo9AB9cSQBlYvkA09ynB9UT5P6HtikDX7o7A4QGnQFI/hcDbx+U/cfCSv/ec4j01dak/
lpc_rms=-28.71
pitch_keycenter=G#6
sample=Piccolo_nonvib_FF_G#5.opus
</region>

<region>
hikey=G#7
hivel=127
lokey=G7
loop_end=185315
loop_mode=loop_continuous
loop_start=38664
loop_xfade=17556
lovel=1
lpc=dhlfQdmfecClJD9BXv0BQEvUG0GMc8BA4y0OQVsjCkC/xjFBoQ5wQLeEGUHfoZtAgg71QDqg4kCqkXZADy8DQdBrkUAhzthAjHurQD0slkBoRoFA6wNbvxFiTkCorqG+
lpc_rms=-18.02
pitch_keycenter=G#7
sample=Piccolo_nonvib_FF_G#6.opus
</region>
</group>